<?xml version="1.0" encoding="UTF-8" standalone="no"?>
<svg
   viewBox="0 0 409.99999 71"
   version="1.1"
   id="svg17"
   sodipodi:docname="Etcher logo.svg"
   inkscape:version="1.1 (c68e22c387, 2021-05-23)"
   width="410"
   height="71"
   xmlns:inkscape="http://www.inkscape.org/namespaces/inkscape"
   xmlns:sodipodi="http://sodipodi.sourceforge.net/DTD/sodipodi-0.dtd"
   xmlns="http://www.w3.org/2000/svg"
   xmlns:svg="http://www.w3.org/2000/svg">
  <defs
     id="defs21" />
  <sodipodi:namedview
     id="namedview19"
     pagecolor="#ffffff"
     bordercolor="#999999"
     borderopacity="1"
     inkscape:pageshadow="0"
     inkscape:pageopacity="0"
     inkscape:pagecheckerboard="0"
     showgrid="false"
     inkscape:zoom="1.283669"
     inkscape:cx="193.58573"
     inkscape:cy="15.190832"
     inkscape:window-width="1920"
     inkscape:window-height="1057"
     inkscape:window-x="-8"
     inkscape:window-y="-8"
     inkscape:window-maximized="1"
     inkscape:current-layer="svg17" />
  <style
     id="style2">.st4{fill:#fff}.st5{fill:#a5de37}.st6{fill:#c8f178}</style>
  <g
     id="Ebene_1"
     transform="translate(-1.2,-1.55)">
    <path
       class="st4"
       d="m 88.8,19.7 h 6.7 v 11.1 h 0.1 c 0.7,-1 1.7,-1.7 2.9,-2.3 1.2,-0.5 2.5,-0.9 3.8,-1.1 0.3,0 0.7,-0.1 1,-0.1 h 0.9 c 4.1,0 7.5,1.4 10.1,4.1 2.6,2.7 3.9,5.9 3.9,9.4 0,0.5 0,1.1 -0.1,1.6 -0.1,0.6 -0.2,1.1 -0.4,1.7 -0.3,1.1 -0.7,2.2 -1.2,3.2 -0.5,1 -1.2,2 -1.9,2.7 -1.2,1.4 -2.8,2.4 -4.6,3.1 -1.8,0.7 -3.7,1.1 -5.6,1.1 -1.9,0 -3.7,-0.3 -5.3,-1 -1.6,-0.7 -3,-1.7 -4.1,-3.2 h -0.1 v 3.4 H 88.7 V 19.7 Z m 8.8,15.7 c -1.7,1.4 -2.5,3.1 -2.5,5.2 0,2.2 0.8,4.1 2.3,5.6 1.5,1.5 3.6,2.3 6.1,2.3 2.4,0 4.3,-0.7 5.8,-2.2 1.5,-1.4 2.2,-3.2 2.2,-5.4 0,-2.1 -0.7,-3.9 -2.2,-5.4 -1.5,-1.5 -3.4,-2.2 -5.8,-2.2 -2.3,0 -4.2,0.7 -5.9,2.1 z m 52.7,18.2 h -6.2 V 50.2 H 144 c -0.8,1.1 -1.9,2 -3.3,2.7 -1.4,0.7 -2.8,1.2 -4.3,1.4 -0.3,0 -0.6,0.1 -0.9,0.1 h -0.9 c -2.2,0 -4.1,-0.4 -5.8,-1.1 -1.7,-0.7 -3.2,-1.8 -4.4,-3.1 -1.1,-1.2 -2,-2.6 -2.6,-4.2 -0.6,-1.6 -0.9,-3.3 -0.9,-5 0,-1.8 0.3,-3.4 0.8,-4.9 0.6,-1.5 1.5,-2.9 2.7,-4.2 1.4,-1.5 3,-2.6 4.7,-3.3 1.7,-0.7 3.6,-1.1 5.7,-1.1 1.9,0 3.7,0.4 5.3,1.1 1.6,0.7 3,1.8 4.1,3.3 v -3.6 h 6.2 V 53.6 Z M 144,40.8 c 0,-2.1 -0.7,-3.9 -2.2,-5.3 -1.5,-1.5 -3.4,-2.2 -5.8,-2.1 -2.5,0 -4.5,0.7 -6,2.2 -1.6,1.5 -2.3,3.4 -2.3,5.6 0,2.1 0.8,3.8 2.4,5.2 1.6,1.4 3.6,2.1 5.8,2.1 2.4,0 4.4,-0.7 5.9,-2.2 1.4,-1.4 2.2,-3.3 2.2,-5.5 z m 11.3,-21.1 h 6.7 v 33.9 h -6.7 z m 18,23.9 c 0.5,1.5 1.4,2.7 2.8,3.6 1.4,0.9 2.9,1.3 4.6,1.3 1.3,0 2.5,-0.2 3.6,-0.6 1.1,-0.4 2,-0.9 2.6,-1.6 h 7.4 c -0.8,2.3 -2.5,4.2 -5.1,5.8 -2.6,1.6 -5.3,2.4 -8.3,2.4 -4.1,0 -7.5,-1.3 -10.4,-3.9 -2.9,-2.6 -4.3,-5.7 -4.3,-9.4 0,-3.8 1.4,-7 4.3,-9.7 2.9,-2.7 6.4,-4 10.5,-4 4,0 7.4,1.3 10.2,4 2.8,2.7 4.2,5.8 4.2,9.3 0,0.4 0,0.8 -0.1,1.2 -0.1,0.4 -0.1,0.8 -0.2,1.1 0,0.1 -0.1,0.2 -0.1,0.3 v 0.3 h -21.7 z m 15.3,-5.4 c -0.5,-1.5 -1.5,-2.7 -2.9,-3.5 -1.4,-0.9 -3,-1.3 -4.7,-1.3 h -0.4 c -1.6,0.1 -3.1,0.6 -4.5,1.4 -1.4,0.9 -2.4,2 -2.8,3.4 z m 11.1,-10 h 6.2 v 2.3 h 0.1 c 0.8,-0.9 1.8,-1.7 3,-2.2 1.3,-0.5 2.6,-0.8 4,-0.9 h 1.4 c 1.3,0.1 2.6,0.4 3.9,1 1.3,0.5 2.3,1.3 3.3,2.2 0.1,0.1 0.3,0.2 0.4,0.3 0.1,0.1 0.2,0.2 0.3,0.4 1.1,1.4 1.7,2.8 1.9,4.4 0.2,1.6 0.3,3.1 0.3,4.8 v 13.1 h -6.7 v -12 -1.2 c 0,-0.4 0,-0.9 -0.1,-1.3 -0.1,-0.7 -0.2,-1.3 -0.4,-1.9 -0.2,-0.6 -0.4,-1.2 -0.8,-1.7 -0.4,-0.6 -1,-1.1 -1.8,-1.5 -0.8,-0.4 -1.5,-0.6 -2.3,-0.6 h -1 c -0.8,0.1 -1.5,0.3 -2.3,0.7 -0.7,0.4 -1.3,0.9 -1.7,1.5 -0.3,0.5 -0.6,1.1 -0.8,1.7 -0.2,0.7 -0.3,1.3 -0.3,2 v 14.3 h -6.7 V 28.2 Z m 58.5,25.4 H 252 v -3.4 h -0.1 c -0.8,1.1 -1.9,2 -3.3,2.7 -1.4,0.7 -2.8,1.2 -4.3,1.4 -0.3,0 -0.6,0.1 -0.9,0.1 h -0.9 c -2.2,0 -4.1,-0.4 -5.8,-1.1 -1.7,-0.7 -3.2,-1.8 -4.4,-3.1 -1.1,-1.2 -2,-2.6 -2.6,-4.2 -0.6,-1.6 -0.9,-3.3 -0.9,-5 0,-1.8 0.3,-3.4 0.8,-4.9 0.6,-1.5 1.5,-2.9 2.7,-4.2 1.4,-1.5 3,-2.6 4.7,-3.3 1.7,-0.7 3.6,-1.1 5.7,-1.1 1.9,0 3.7,0.4 5.3,1.1 1.6,0.7 3,1.8 4.1,3.3 v -3.6 h 6.2 v 25.3 z m -6.4,-12.8 c 0,-2.1 -0.7,-3.9 -2.2,-5.3 -1.5,-1.5 -3.4,-2.2 -5.8,-2.1 -2.5,0 -4.5,0.7 -6,2.2 -1.6,1.5 -2.3,3.4 -2.3,5.6 0,2.1 0.8,3.8 2.4,5.2 1.6,1.4 3.6,2.1 5.8,2.1 2.4,0 4.4,-0.7 5.9,-2.2 1.5,-1.4 2.2,-3.3 2.2,-5.5 z"
       id="path4"
       style="fill:#000000;fill-opacity:1" />
    <path
       class="st5"
       d="m 34.9,43.9 v 20.6 c 0.9,-0.2 1.7,-0.4 2.5,-0.9 l 17.1,-9.8 c 2.5,-1.4 4,-4.1 4,-7 V 27.3 c 0,-0.8 -0.1,-1.6 -0.4,-2.3 L 39.6,35.7 c -3.9,2.7 -4.7,5.2 -4.7,8.2 z"
       id="path6" />
    <path
       class="st6"
       d="m 64.9,21 -6.8,3.9 c 0.2,0.7 0.4,1.5 0.4,2.3 v 19.6 c 0,2.9 -1.6,5.6 -4,7 l -17.1,9.8 c -0.8,0.4 -1.6,0.7 -2.5,0.9 v 7.8 c 1.2,-0.2 2.4,-0.6 3.4,-1.2 L 60.5,58.4 c 3.1,-1.8 5,-5.1 5,-8.7 V 24.3 c 0,-1.1 -0.2,-2.2 -0.6,-3.3 z"
       id="path8" />
    <path
       class="st5"
       d="m 33.3,37.4 c 1,-1.6 2.5,-3.1 4.7,-4.4 L 56.7,22.2 c -0.6,-0.8 -1.4,-1.5 -2.2,-2 L 37.4,10.4 C 34.9,9 31.8,9 29.3,10.4 l -17,9.8 c -0.9,0.5 -1.6,1.2 -2.3,2 L 28.6,33 c 2.2,1.4 3.7,2.8 4.7,4.4 z"
       id="path10" />
    <path
       class="st6"
       d="m 12.3,20.3 17,-9.8 c 2.5,-1.4 5.6,-1.4 8.1,0 l 17.1,9.8 c 0.9,0.5 1.6,1.2 2.2,2 l 6.8,-3.9 c -0.8,-1.1 -1.8,-2 -3,-2.6 L 38.3,2.9 c -3.1,-1.8 -6.9,-1.8 -10,0 l -22,12.8 c -1.2,0.7 -2.2,1.6 -3,2.7 l 6.8,3.9 c 0.5,-0.8 1.3,-1.5 2.2,-2 z m 17,43.3 -17,-9.8 c -2.5,-1.4 -4,-4.1 -4,-7 V 27.2 C 8.3,26.4 8.4,25.7 8.6,25 L 1.8,21.1 c -0.4,1.1 -0.6,2.1 -0.6,3.2 v 25.5 c 0,3.6 1.9,6.9 5,8.6 l 22.1,12.7 c 1,0.6 2.2,1 3.4,1.2 v -7.8 c -0.8,-0.1 -1.6,-0.4 -2.4,-0.9 z"
       id="path12" />
    <path
       class="st5"
       d="M 27,35.6 8.6,25 c -0.2,0.7 -0.3,1.5 -0.3,2.2 v 19.6 c 0,2.9 1.5,5.6 4,7 l 17,9.8 c 0.8,0.4 1.6,0.7 2.5,0.9 V 43.9 C 31.7,40.9 30.9,38.4 27,35.6 Z M 267.6,19.4 H 287 v 7.7 h -10.6 v 5.3 h 10.3 v 7.7 H 276.4 V 46 H 287 v 7.7 h -19.4 z m 26.7,14.4 h -3.8 V 28 h 3.8 V 19.5 H 302 V 28 h 3.7 v 5.8 H 302 v 19.8 h -7.7 z m 40.2,10.1 c -1.4,5.8 -6.5,10.6 -13.4,10.6 -7.8,0 -13.7,-6.1 -13.7,-13.7 0,-7.5 5.9,-13.6 13.5,-13.6 6.8,0 12.3,4.5 13.6,10.8 h -7.8 c -0.8,-1.8 -2.4,-3.6 -5.5,-3.6 -1.8,-0.1 -3.3,0.6 -4.4,1.8 -1.1,1.2 -1.7,2.9 -1.7,4.7 0,3.7 2.4,6.5 6.1,6.5 3.2,0 4.7,-1.8 5.5,-3.4 h 7.8 z M 338,19.4 h 7.7 v 10.9 c 1.4,-2.3 4,-3.2 6.7,-3.2 3.9,0 6.2,1.4 7.6,3.6 1.4,2.2 1.8,5.3 1.8,8.5 v 14.3 h -7.7 v -14 c 0,-1.4 -0.2,-2.8 -0.8,-3.7 -0.6,-1 -1.7,-1.6 -3.3,-1.6 -2.1,0 -3.2,1 -3.7,2.1 -0.6,1.1 -0.6,2.4 -0.6,3 V 53.5 H 338 Z m 35.5,24.1 c 0.3,2.7 2.9,4.5 5.9,4.5 2.4,0 3.7,-1.1 4.7,-2.4 h 7.9 c -1.2,2.9 -3,5.1 -5.2,6.6 -2.1,1.5 -4.7,2.3 -7.3,2.3 -7.3,0 -13.6,-6 -13.6,-13.6 0,-7.2 5.6,-13.8 13.4,-13.8 3.9,0 7.3,1.5 9.7,4.1 3.2,3.5 4.2,7.6 3.6,12.3 z M 385,37.6 c -0.2,-1.2 -1.8,-4.1 -5.7,-4.1 -4,0 -5.5,2.9 -5.7,4.1 z M 397,28 h 7.2 v 2.9 c 0.7,-1.4 2.1,-3.7 6.5,-3.7 v 7.7 h -0.3 c -3.9,0 -5.8,1.4 -5.8,5 V 53.7 H 397 Z"
       id="path14" />
  </g>
</svg>
